<?xml version="1.0" encoding="utf-8"?>
<!-- Generator: Adobe Illustrator 25.0.1, SVG Export Plug-In . SVG Version: 6.00 Build 0)  -->
<svg version="1.1" id="Calque_1" xmlns="http://www.w3.org/2000/svg" xmlns:xlink="http://www.w3.org/1999/xlink" x="0px" y="0px"
	 viewBox="0 0 1080 1080" style="enable-background:new 0 0 1080 1080;" xml:space="preserve">
<style type="text/css">
	.st0{fill:#FBFBFB;}
</style>
<g>
	<g>
		<path class="st0" d="M208,506.96h-29.13l17.68-112.05h29.14L208,506.96z"/>
		<path class="st0" d="M257.07,394.91h28.68l13.37,59.89l33.45-59.89h28.98l-0.75,112.05h-29.13l2.08-64.5h-0.3l-37.15,64.5h-11.59
			l-15.45-64.5h-0.3l-19.62,64.5h-28.98L257.07,394.91z"/>
		<path class="st0" d="M390.89,394.91h44.59c24.07,0,39.08,11.14,34.92,36.86c-4.16,26.45-20.21,38.04-45.62,38.04h-16.51
			l-5.94,37.15h-29.13L390.89,394.91z M411.99,446.33h4.91c10.55,0,20.95,0,23.03-13.67c2.23-14.11-7.43-14.27-18.72-14.27h-4.9
			L411.99,446.33z"/>
		<path class="st0" d="M586.36,394.91l-9.95,63.01c-2.24,14.41-5.06,28.68-17.98,39.53c-10.85,9.21-26.02,12.49-39.08,12.49
			c-13.08,0-27.35-3.28-35.22-12.49c-9.37-10.85-7.73-25.12-5.49-39.53l9.95-63.01h29.13l-9.21,59
			c-2.37,14.56-3.86,30.46,14.86,30.46c18.73,0,22.29-15.9,24.67-30.46l9.21-59H586.36z"/>
		<path class="st0" d="M620.16,482.29h34.93l-3.87,24.67h-64.05l17.68-112.05h29.14L620.16,482.29z"/>
		<path class="st0" d="M735.51,423.75c-4.76-4.47-10.99-7.44-18.13-7.44c-5.35,0-13.08,3.12-13.96,9.37
			c-1.04,6.55,6.39,9.06,11.14,10.7l7.13,2.24c14.86,4.6,25.71,12.48,22.74,30.61c-1.78,11.14-6.23,22.58-16.35,30.17
			c-9.95,7.43-22.13,10.55-33.43,10.55c-14.12,0-27.19-4.76-37.45-12.79l16.2-23.48c6.39,6.39,14.12,11.59,24.07,11.59
			c6.84,0,14.71-3.42,15.91-11.29c1.33-8.18-9.67-11-15.61-12.79c-17.53-5.19-28.84-9.95-25.27-31.66
			c3.57-22.74,22.14-37.6,44.59-37.6c11.29,0,24.52,3.57,33.58,9.22L735.51,423.75z"/>
		<path class="st0" d="M781.48,506.96h-29.13l17.68-112.05h29.14L781.48,506.96z"/>
		<path class="st0" d="M928.03,448.85c-5.8,36.27-35.81,61.82-71.78,61.82c-35.96,0-57.95-25.56-52.15-61.82
			c5.35-33.88,38.78-57.66,71.03-57.66S933.38,414.97,928.03,448.85z M834.41,449c-3.12,19.32,8.92,33.45,26.31,33.45
			c17.39,0,33.88-14.12,37-33.45c2.37-15.45-9.66-29.57-27.04-29.57S836.8,433.55,834.41,449z"/>
		<path class="st0" d="M950.09,394.91h29.14l42.5,68.51h0.3l10.84-68.51H1062l-17.68,112.05h-29.13l-42.51-68.66h-0.29l-10.85,68.66
			h-29.13L950.09,394.91z"/>
		<path class="st0" d="M107.47,610.94c-4.61-8.02-13.67-12.33-23.63-12.33c-17.84,0-31.95,13.67-34.78,31.06
			c-2.67,17.68,7.43,30.46,25.57,30.46c9.51,0,19.76-4.61,27.04-11.88l-5.65,34.92c-10.1,2.96-17.39,5.2-26.45,5.2
			c-15.6,0-29.58-5.95-39.54-16.51c-10.55-11.14-13.82-25.7-11.14-42.35c2.38-15.31,10.55-30.02,22.88-41.01
			c12.8-11.3,29.88-18.14,45.64-18.14c9.37,0,17.53,2.08,25.71,5.65L107.47,610.94z"/>
		<path class="st0" d="M241.27,627.29c-5.8,36.27-35.81,61.82-71.78,61.82c-35.96,0-57.95-25.56-52.15-61.82
			c5.35-33.88,38.78-57.66,71.03-57.66S246.61,593.41,241.27,627.29z M147.64,627.43c-3.12,19.32,8.92,33.45,26.31,33.45
			s33.88-14.12,37-33.45c2.37-15.45-9.66-29.57-27.04-29.57S150.03,611.98,147.64,627.43z"/>
		<path class="st0" d="M278.63,660.72h34.93l-3.87,24.67h-64.05l17.68-112.05h29.14L278.63,660.72z"/>
		<path class="st0" d="M352.23,660.72h34.93l-3.87,24.67h-64.05l17.68-112.05h29.14L352.23,660.72z"/>
		<path class="st0" d="M435.78,598.02l-2.96,18.72h32.84l-3.87,24.67h-32.84l-3.12,19.31h34.63l-3.86,24.67h-63.76l17.68-112.05
			h63.76l-3.86,24.67H435.78z"/>
		<path class="st0" d="M566.46,610.94c-4.61-8.02-13.67-12.33-23.63-12.33c-17.84,0-31.95,13.67-34.78,31.06
			c-2.67,17.68,7.43,30.46,25.57,30.46c9.51,0,19.76-4.61,27.04-11.88l-5.65,34.92c-10.1,2.96-17.39,5.2-26.45,5.2
			c-15.6,0-29.57-5.95-39.53-16.51c-10.55-11.14-13.82-25.7-11.14-42.35c2.38-15.31,10.55-30.02,22.89-41.01
			c12.78-11.3,29.86-18.14,45.62-18.14c9.37,0,17.53,2.08,25.7,5.65L566.46,610.94z"/>
		<path class="st0" d="M617.33,685.4H588.2l13.82-87.38h-24.07l3.86-24.67h77.27l-3.86,24.67h-24.07L617.33,685.4z"/>
		<path class="st0" d="M681.12,685.4H652l17.68-112.05h29.14L681.12,685.4z"/>
		<path class="st0" d="M754.11,641.41l37.9-68.07h31.66L758.13,685.4h-22.59l-29.43-112.05h31.66L754.11,641.41z"/>
		<path class="st0" d="M856.27,598.02l-2.96,18.72h32.84l-3.86,24.67h-32.85l-3.12,19.31h34.63l-3.86,24.67h-63.76L831,573.35h63.76
			l-3.86,24.67H856.27z"/>
	</g>
	<g>
		<path class="st0" d="M147.15,476.02l-30.63,30.63l-0.85-59.17l-59.4,59.48L35.1,485.79l59.4-59.48l-59.17-0.78l30.63-30.63h81.19
			V476.02z"/>
	</g>
</g>
</svg>
