<?xml version="1.0" encoding="utf-8"?>
<!-- Generator: Adobe Illustrator 25.0.1, SVG Export Plug-In . SVG Version: 6.00 Build 0)  -->
<svg version="1.1" id="Calque_1" xmlns="http://www.w3.org/2000/svg" xmlns:xlink="http://www.w3.org/1999/xlink" x="0px" y="0px"
	 viewBox="0 0 1080 1080" style="enable-background:new 0 0 1080 1080;" xml:space="preserve">
<g>
	<g>
		<path d="M213.73,507.53H185.1l17.37-110.12h28.64L213.73,507.53z"/>
		<path d="M261.95,397.41h28.18l13.14,58.85l32.87-58.85h28.48l-0.74,110.12h-28.62l2.05-63.38h-0.3l-36.51,63.38h-11.39
			l-15.19-63.38h-0.3l-19.28,63.38h-28.48L261.95,397.41z"/>
		<path d="M393.46,397.41h43.82c23.65,0,38.41,10.95,34.32,36.22c-4.09,26-19.86,37.39-44.83,37.39h-16.22l-5.84,36.51h-28.62
			L393.46,397.41z M414.2,447.94h4.83c10.37,0,20.58,0,22.63-13.44c2.19-13.87-7.3-14.02-18.4-14.02h-4.82L414.2,447.94z"/>
		<path d="M585.56,397.41l-9.78,61.92c-2.2,14.16-4.97,28.18-17.67,38.85c-10.67,9.05-25.57,12.27-38.41,12.27
			c-12.86,0-26.88-3.22-34.62-12.27c-9.2-10.67-7.6-24.69-5.4-38.85l9.78-61.92h28.62l-9.05,57.99
			c-2.33,14.31-3.79,29.93,14.6,29.93c18.41,0,21.9-15.63,24.25-29.93l9.05-57.99H585.56z"/>
		<path d="M618.78,483.29h34.33l-3.81,24.25h-62.94l17.37-110.12h28.64L618.78,483.29z"/>
		<path d="M732.14,425.75c-4.67-4.39-10.8-7.31-17.81-7.31c-5.26,0-12.86,3.07-13.72,9.2c-1.02,6.43,6.28,8.91,10.95,10.51l7,2.2
			c14.6,4.52,25.27,12.26,22.34,30.09c-1.75,10.95-6.12,22.19-16.07,29.65c-9.78,7.3-21.75,10.37-32.86,10.37
			c-13.88,0-26.72-4.67-36.81-12.57l15.92-23.07c6.28,6.28,13.88,11.39,23.65,11.39c6.72,0,14.46-3.37,15.64-11.1
			c1.31-8.04-9.5-10.81-15.34-12.57c-17.23-5.1-28.34-9.78-24.83-31.11c3.51-22.34,21.76-36.95,43.82-36.95
			c11.1,0,24.09,3.51,33,9.06L732.14,425.75z"/>
		<path d="M777.32,507.53H748.7l17.37-110.12h28.64L777.32,507.53z"/>
		<path d="M921.34,450.43c-5.7,35.64-35.19,60.76-70.54,60.76c-35.34,0-56.95-25.12-51.25-60.76c5.26-33.3,38.11-56.67,69.81-56.67
			C901.04,393.76,926.6,417.13,921.34,450.43z M829.34,450.57c-3.07,18.99,8.76,32.87,25.85,32.87s33.3-13.88,36.37-32.87
			c2.33-15.19-9.49-29.06-26.58-29.06C847.89,421.51,831.68,435.39,829.34,450.57z"/>
		<path d="M943.02,397.41h28.64l41.76,67.33h0.3l10.66-67.33H1053l-17.37,110.12H1007l-41.78-67.47h-0.29l-10.67,67.47h-28.62
			L943.02,397.41z"/>
		<path d="M114.93,609.72c-4.53-7.88-13.44-12.12-23.22-12.12c-17.53,0-31.39,13.44-34.18,30.53c-2.63,17.37,7.3,29.93,25.13,29.93
			c9.35,0,19.42-4.53,26.58-11.68l-5.55,34.32c-9.93,2.91-17.09,5.11-26,5.11c-15.33,0-29.07-5.85-38.86-16.22
			c-10.37-10.95-13.58-25.26-10.95-41.62c2.34-15.04,10.37-29.5,22.49-40.3c12.58-11.11,29.37-17.83,44.85-17.83
			c9.2,0,17.23,2.05,25.27,5.55L114.93,609.72z"/>
		<path d="M246.42,625.79c-5.7,35.64-35.19,60.76-70.54,60.76c-35.34,0-56.95-25.12-51.25-60.76c5.26-33.3,38.11-56.67,69.81-56.67
			S251.67,592.49,246.42,625.79z M154.41,625.93c-3.07,18.99,8.76,32.87,25.85,32.87s33.3-13.88,36.37-32.87
			c2.33-15.19-9.49-29.06-26.58-29.06S156.75,610.74,154.41,625.93z"/>
		<path d="M283.14,658.64h34.33l-3.81,24.25h-62.94l17.37-110.12h28.64L283.14,658.64z"/>
		<path d="M355.47,658.64h34.33l-3.81,24.25h-62.94l17.37-110.12h28.64L355.47,658.64z"/>
		<path d="M437.58,597.02l-2.91,18.4h32.27l-3.81,24.25h-32.27l-3.07,18.98h34.03l-3.79,24.25h-62.66l17.37-110.12h62.66
			l-3.79,24.25H437.58z"/>
		<path d="M566,609.72c-4.53-7.88-13.44-12.12-23.22-12.12c-17.53,0-31.39,13.44-34.18,30.53c-2.63,17.37,7.3,29.93,25.13,29.93
			c9.35,0,19.42-4.53,26.58-11.68l-5.55,34.32c-9.93,2.91-17.09,5.11-26,5.11c-15.33,0-29.06-5.85-38.85-16.22
			c-10.37-10.95-13.58-25.26-10.95-41.62c2.34-15.04,10.37-29.5,22.5-40.3c12.56-11.11,29.35-17.83,44.83-17.83
			c9.2,0,17.23,2.05,25.26,5.55L566,609.72z"/>
		<path d="M615.99,682.89h-28.62l13.58-85.87H577.3l3.79-24.25h75.94l-3.79,24.25h-23.65L615.99,682.89z"/>
		<path d="M678.69,682.89h-28.62l17.37-110.12h28.64L678.69,682.89z"/>
		<path d="M750.42,639.66l37.25-66.89h31.11l-64.41,110.12h-22.2l-28.92-110.12h31.11L750.42,639.66z"/>
		<path d="M850.81,597.02l-2.91,18.4h32.27l-3.79,24.25h-32.29l-3.07,18.98h34.03l-3.79,24.25h-62.66l17.37-110.12h62.66
			l-3.79,24.25H850.81z"/>
	</g>
	<g>
		<path d="M153.92,477.13l-30.1,30.1l-0.84-58.15l-58.37,58.45l-20.8-20.8l58.37-58.45l-58.15-0.76l30.1-30.1h79.79V477.13z"/>
	</g>
</g>
</svg>
